PathFileType	4	(X/Y/Z)	/Users/itak/Documents/Research/Walk-IL/dataset/trc/00441_00167.trc
DataRate	CameraRate	NumFrames	NumMarkers	Units	OrigDataRate	OrigDataStartFrame	OrigNumFrames
100.000000	100.000000	4	53	mm	100.000000	260	520
Frame#	Time	RPSI			LPSI			L3			STRN			T10			C7			CLAV			RBAK			LBAK			LSHO			LUPA			LAEL			LAOL			LWTS			LWPS			LFRA			LIFD			LHPS			LHTS			RSHO			RUPA			RAEL			RAOL			RWTS			RWPS			RFRA			RIFD			RHTS			RHPS			RBHD			LFHD			RFHD			LBHD			LHIP			RHIP			RASI			LASI			LKNE			LTHI			LANK			LTIP			LTOE			LMT1			LMT5			LHEE			RKNE			RTHI			RANK			RTIP			RTOE			RMT1			RMT5			RHEE			
		X1	Y1	Z1	X2	Y2	Z2	X3	Y3	Z3	X4	Y4	Z4	X5	Y5	Z5	X6	Y6	Z6	X7	Y7	Z7	X8	Y8	Z8	X9	Y9	Z9	X10	Y10	Z10	X11	Y11	Z11	X12	Y12	Z12	X13	Y13	Z13	X14	Y14	Z14	X15	Y15	Z15	X16	Y16	Z16	X17	Y17	Z17	X18	Y18	Z18	X19	Y19	Z19	X20	Y20	Z20	X21	Y21	Z21	X22	Y22	Z22	X23	Y23	Z23	X24	Y24	Z24	X25	Y25	Z25	X26	Y26	Z26	X27	Y27	Z27	X28	Y28	Z28	X29	Y29	Z29	X30	Y30	Z30	X31	Y31	Z31	X32	Y32	Z32	X33	Y33	Z33	X34	Y34	Z34	X35	Y35	Z35	X36	Y36	Z36	X37	Y37	Z37	X38	Y38	Z38	X39	Y39	Z39	X40	Y40	Z40	X41	Y41	Z41	X42	Y42	Z42	X43	Y43	Z43	X44	Y44	Z44	X45	Y45	Z45	X46	Y46	Z46	X47	Y47	Z47	X48	Y48	Z48	X49	Y49	Z49	X50	Y50	Z50	X51	Y51	Z51	X52	Y52	Z52	X53	Y53	Z53	

261	2.6	-430.1079406738281	928.1746215820312	-26.67110061645508	-344.0437316894531	911.5726318359375	-138.5095367431641	-396.7494812011719	1025.920166015625	-46.46499252319336	-134.2956237792969	1196.4072265625	85.57198333740234	-401.614990234375	1151.76904296875	-37.50164794921875	-327.8228759765625	1410.435913085938	19.1845703125	-155.5556793212891	1313.612670898438	68.4913330078125	-431.7465515136719	1299.221069335938	81.64910888671875	-325.3141174316406	1368.249877929688	-84.95421600341797	-197.6453552246094	1380.296508789062	-122.35400390625	-192.9701538085938	1271.961181640625	-229.3504333496094	-194.9084777832031	1063.385009765625	-286.708251953125	-290.9203186035156	1062.149047851562	-247.7821502685547	-170.4508361816406	844.7054443359375	-256.4639282226562	-198.9972076416016	845.6969604492188	-324.83203125	-188.9767608642578	974.9710693359375	-304.7399597167969	-201.0542297363281	681.8894653320312	-284.3359985351562	-207.5814056396484	765.1224365234375	-334.2736511230469	-169.3315124511719	755.7772216796875	-274.2141723632812	-320.1322937011719	1378.229370117188	191.2192687988281	-362.3117065429688	1321.624267578125	259.9825134277344	-347.3338623046875	1047.650512695312	353.850830078125	-385.4208679199219	1015.513610839844	307.7438659667969	-192.4420776367188	880.52392578125	355.1232604980469	-261.714599609375	851.0751953125	400.1925354003906	-331.4937438964844	993.1329956054688	371.1818542480469	-146.3231201171875	732.6720581054688	389.0776977539062	-150.9422149658203	793.5880737304688	386.9541625976562	-219.4754180908203	774.4392700195312	415.1789245605469	-290.1302185058594	1598.913940429688	114.8642730712891	-100.9928283691406	1616.433227539062	33.52985000610352	-158.8162078857422	1622.916870117188	150.5002288818359	-225.1341705322266	1594.853759765625	-51.97129821777344	-153.0164031982422	817.3598022460938	-137.7183532714844	-439.8454895019531	829.8211059570312	154.5542907714844	-312.2679748535156	856.603515625	171.3436431884766	-141.6067657470703	860.5744018554688	-16.8917064666748	-2.101652145385742	448.6010437011719	-9.880268096923828	-38.9770393371582	584.7804565429688	-51.21590042114258	137.0710296630859	58.66567230224609	63.96402740478516	64.55998992919922	318.9829406738281	11.60405445098877	245.7894744873047	176.1027526855469	232.5199279785156	176.2985534667969	144.3255920410156	216.1316375732422	242.9855499267578	136.0709075927734	127.5987396240234	68.36813354492188	34.78389358520508	74.18414306640625	-465.5455627441406	442.7234191894531	75.33631134033203	-421.9758911132812	688.873291015625	162.7609100341797	-619.9288330078125	60.84335708618164	-50.31253433227539	-514.2609252929688	304.4214782714844	47.38118743896484	-409.31005859375	45.87435913085938	2.366112470626831	-449.0286560058594	53.03187942504883	-55.65537643432617	-516.1146850585938	45.42879104614258	29.79071617126465	-657.3045654296875	72.88926696777344	-123.0573272705078	
262	2.61	-419.1706848144531	926.4298706054688	-22.58239936828613	-332.5574340820312	909.41552734375	-133.8722839355469	-385.8717041015625	1024.278686523438	-42.36597442626953	-123.1214294433594	1194.34228515625	90.86236572265625	-390.0966796875	1150.189331054688	-33.44402313232422	-315.9445495605469	1408.735595703125	23.56463813781738	-144.0576477050781	1311.61328125	73.57745361328125	-420.524658203125	1297.830078125	85.4754638671875	-313.1852111816406	1366.435180664062	-80.50700378417969	-185.4238586425781	1378.138305664062	-117.6447372436523	-181.2322845458984	1269.462768554688	-224.4504241943359	-184.4016723632812	1060.756713867188	-281.2886962890625	-280.4044799804688	1060.197509765625	-242.2990417480469	-161.3847808837891	841.9935302734375	-250.3343658447266	-189.8261871337891	843.0205688476562	-318.7733154296875	-178.9866333007812	972.21875	-299.0407104492188	-193.0998992919922	679.3324584960938	-277.8909912109375	-199.0542297363281	762.4620971679688	-328.0575866699219	-160.8798065185547	752.9774780273438	-267.8126525878906	-309.1196899414062	1376.280029296875	195.7768707275391	-351.9595031738281	1319.475952148438	264.064453125	-339.2000732421875	1044.971069335938	356.680908203125	-377.1839599609375	1013.206726074219	310.21484375	-185.05322265625	877.2841796875	357.9479675292969	-254.6654052734375	847.84521484375	402.4927978515625	-323.72509765625	990.2802734375	373.8464050292969	-139.60009765625	729.1510620117188	391.4432373046875	-144.0119476318359	790.0689697265625	389.576171875	-212.7421112060547	771.0187377929688	417.3453979492188	-278.8416442871094	1597.158203125	118.8191146850586	-89.59104919433594	1614.76123046875	37.77780532836914	-147.6105194091797	1621.449584960938	154.6173553466797	-213.5379486083984	1592.770141601562	-47.8998908996582	-141.2910766601562	816.0221557617188	-131.7843933105469	-430.1249389648438	828.8421020507812	158.9791870117188	-302.3821411132812	855.231689453125	176.3567962646484	-130.6150970458984	859.2798461914062	-10.96944904327393	10.36975002288818	447.603759765625	-2.105624914169312	-26.33818817138672	584.5079956054688	-43.97641372680664	145.2381286621094	55.88658905029297	70.02112579345703	75.64104461669922	316.8977661132812	18.99083518981934	254.6169891357422	172.2037506103516	238.8628692626953	185.0748596191406	140.683837890625	222.4293518066406	251.6412963867188	132.5708618164062	133.8506469726562	76.41117858886719	32.46284484863281	80.20989227294922	-457.7441101074219	442.1724853515625	80.21333312988281	-412.6867980957031	687.86376953125	167.5827789306641	-619.5241088867188	63.69279098510742	-48.87322235107422	-508.9395141601562	304.9469909667969	50.91911697387695	-409.2010803222656	45.73517990112305	2.416587352752686	-448.7700805664062	53.3086051940918	-55.11049652099609	-515.8486328125	45.33798217773438	30.21807289123535	-656.8263549804688	77.87615966796875	-121.3737335205078	
263	2.62	-408.0084228515625	924.8380737304688	-18.39672088623047	-320.8820495605469	907.481201171875	-129.1046600341797	-374.7659301757812	1022.811157226562	-38.13919067382812	-111.6826324462891	1192.451171875	96.12393951416016	-378.2811584472656	1148.762939453125	-29.29314422607422	-303.7873840332031	1407.201416015625	27.92324829101562	-132.2881317138672	1309.79296875	78.66227722167969	-408.9990844726562	1296.633178710938	89.28384399414062	-300.7691955566406	1364.794677734375	-76.08106231689453	-172.9023132324219	1376.180786132812	-112.9236602783203	-169.1100616455078	1267.178100585938	-219.5185241699219	-173.5099792480469	1058.30517578125	-275.7407836914062	-269.5113830566406	1058.466064453125	-236.7723083496094	-152.0453796386719	839.45068359375	-244.0489654541016	-180.3256378173828	840.5150146484375	-312.5710754394531	-168.6304931640625	969.6446533203125	-293.1958618164062	-184.9441070556641	676.9623413085938	-271.2837219238281	-190.1911773681641	759.9943237304688	-321.6809692382812	-152.2040710449219	750.3470458984375	-261.2453308105469	-297.8301696777344	1374.516235351562	200.3036651611328	-341.37060546875	1317.53271484375	268.0929260253906	-331.1322326660156	1042.438598632812	359.2680053710938	-369.0161743164062	1011.124572753906	312.3913879394531	-178.0031280517578	873.9430541992188	360.5728454589844	-248.0453643798828	844.6046142578125	404.4923095703125	-316.1224060058594	987.5369262695312	376.2493591308594	-133.4727783203125	725.436279296875	393.5438537597656	-137.5850524902344	786.3701171875	391.9717407226562	-206.5685272216797	767.505859375	419.1978454589844	-267.3634948730469	1595.545043945312	122.7473831176758	-77.98230743408203	1613.272827148438	42.05764389038086	-136.2332305908203	1620.1357421875	158.7471313476562	-201.7037353515625	1590.851440429688	-43.82913208007812	-129.4414672851562	814.8782958984375	-125.8232269287109	-420.1646423339844	827.8729858398438	163.3972015380859	-292.2486572265625	853.9461059570312	181.4094848632812	-119.4115600585938	858.2086181640625	-5.008336544036865	23.01288604736328	446.6273498535156	5.8942551612854	-13.45299053192139	584.5693359375	-36.58660888671875	151.2062225341797	52.14933776855469	74.52679443359375	86.26420593261719	314.1484375	26.22337532043457	262.0596618652344	165.9579620361328	244.0497131347656	192.2837982177734	135.0717468261719	227.5642852783203	258.527099609375	127.228759765625	138.7712554931641	82.219970703125	29.52219772338867	84.62406921386719	-449.5780334472656	441.62646484375	85.31315612792969	-403.1415405273438	686.8963012695312	172.4391937255859	-618.9044189453125	66.79205322265625	-47.42608642578125	-503.3475646972656	305.5808410644531	54.68575668334961	-409.0490112304688	45.5902214050293	2.488364458084106	-448.4039001464844	53.63486480712891	-54.52333068847656	-515.5221557617188	45.24859237670898	30.66816520690918	-656.0863037109375	83.31111145019531	-119.5653305053711	
264	2.63	-396.5498046875	923.4179077148438	-14.11479091644287	-308.9482421875	905.7686767578125	-124.1992568969727	-363.3584289550781	1021.490661621094	-33.78213882446289	-99.97722625732422	1190.7412109375	101.3689117431641	-366.1563110351562	1147.467895507812	-25.05794143676758	-291.375	1405.8193359375	32.24965286254883	-120.2520751953125	1308.152221679688	83.74147033691406	-397.1673889160156	1295.606079101562	93.07047271728516	-288.0753173828125	1363.303588867188	-71.68325042724609	-160.0924072265625	1374.416748046875	-108.1954956054688	-156.6111145019531	1265.108642578125	-214.5651397705078	-162.2272033691406	1056.029052734375	-270.0793762207031	-258.2327575683594	1056.951416015625	-231.2193145751953	-142.4187316894531	837.0751342773438	-237.6117858886719	-170.4724884033203	838.1759033203125	-306.2316284179688	-157.8987121582031	967.2517700195312	-287.2193603515625	-176.5834655761719	674.7832641601562	-264.5107421875	-180.9673309326172	757.719482421875	-315.1405334472656	-143.2917022705078	747.8894653320312	-254.5158081054688	-286.2764282226562	1372.949096679688	204.7823486328125	-330.5453491210938	1315.816528320312	272.0653686523438	-323.1217041015625	1040.082763671875	361.6151123046875	-360.9062805175781	1009.299011230469	314.2772216796875	-171.2871551513672	870.5213012695312	363.0021667480469	-241.8565521240234	841.38427734375	406.1922912597656	-308.678466796875	984.9353637695312	378.3895874023438	-127.9584350585938	721.549560546875	395.3773193359375	-131.6762542724609	782.5128173828125	394.1413269042969	-200.9693450927734	763.9274291992188	420.735595703125	-255.7021179199219	1594.069702148438	126.6516876220703	-66.17408752441406	1611.96728515625	46.36811065673828	-124.6940383911133	1618.978637695312	162.8916625976562	-189.6441955566406	1589.089721679688	-39.75483703613281	-117.4237747192383	813.8511352539062	-119.8217849731445	-409.9394836425781	826.9359741210938	167.8207702636719	-281.8555297851562	852.7443237304688	186.5332641601562	-107.9545745849609	857.2803955078125	1.024111986160278	35.71693801879883	445.6247253417969	14.01389789581299	-0.416497528553009	584.7672119140625	-29.13187599182129	155.3429107666016	47.79563903808594	77.75746917724609	96.42997741699219	310.8578491210938	33.28560256958008	268.2604675292969	157.8389282226562	248.3441925048828	198.0874938964844	127.9341049194336	231.7741394042969	263.8942565917969	120.3663024902344	142.6779174804688	86.14745330810547	26.30098342895508	87.66121673583984	-441.0552062988281	441.1019592285156	90.65059661865234	-393.34619140625	685.984130859375	177.3388214111328	-618.0526123046875	70.15737915039062	-45.95417785644531	-497.484619140625	306.3410949707031	58.70701599121094	-408.8592529296875	45.44483184814453	2.579591274261475	-447.9422607421875	54.02362060546875	-53.86653137207031	-515.1319580078125	45.15520095825195	31.13099670410156	-655.021484375	89.20700836181641	-117.6224594116211	
